<svg xmlns="http://www.w3.org/2000/svg" viewBox="0 0 260.05 130.75"><title>LaMueLogoAsset 1</title><g id="Layer_2" data-name="Layer 2"><g id="Layer_1-2" data-name="Layer 1"><path d="M0,57.43V54.15H6.56V50.87H8.2V6.56H6.56V3.28H1.64V1.64H0V0H24.61V1.64H23V3.28H18.05V4.92H16.41V52.51H13.13v1.64h23V52.51h3.28V50.87H41V49.23h1.64V46H44.3V41H46V37.74h3.28V41H47.59V54.15H46v3.28Z" style="fill:#fcfbee"/><path d="M70.56,57.43H57.43V55.79H55.79V54.15H54.15V42.66h1.64V41h3.28V39.38h3.28V37.74h3.28V36.1h4.93V34.46h6.56V26.25H75.48V23H73.84V21.33H64V23H62.35v1.64H60.71v1.64H64V27.9H62.35v3.28H55.79V24.61h1.64V21.33h3.28V19.69H64V18.05H75.48v1.64H80.4v1.64H82V23h1.64v1.64h1.64V54.15h3.29V52.51h3.28v1.64H90.25v1.64H87v1.64H78.76V55.79H77.12V52.51H75.48v1.64H73.84v1.64H70.56Zm0-3.28V52.51H72.2V50.87h3.28V49.23h1.64V36.1H75.48v1.64H70.56v1.64H65.63V41H64v1.64H62.35v8.21H64v3.28Z" style="fill:#fcfbee"/><path d="M113.22,0h18.05V1.64h1.64V4.92h1.64V8.21h1.64v4.92h1.64v3.28h1.64v4.92h1.64v3.28h1.64v4.93h1.64v3.28H146V36.1h1.65V41h1.64v1.64H151V39.38h1.64V34.46h1.64V31.18h1.64V27.9h1.64V23h1.64V19.69h1.64V14.77h1.64V9.85h1.64V6.56h1.65V1.64h1.64V0h18V3.28h-6.57V4.92h-1.64V52.51h1.64v1.64h4.93v1.64h1.64v1.64H160.8V54.15h6.57V52.51H169V9.85h1.64V8.21h-3.28v4.92h-1.64v3.28h-1.65v4.92h-1.64v3.28H160.8v4.93h-1.64v3.28h-1.64V36.1h-1.64V41h-1.64V44.3H152.6v4.93H151v3.28h-1.64v4.92h-1.64v1.64H146V55.79h-1.64V52.51h-1.64V47.59h-1.64V44.3h-1.64V39.38h-1.64V36.1h-1.64V31.18h-1.64V27.9h-1.64V23h-1.64V19.69h-1.64V14.77H128V11.49h-1.64V8.21H124.7v41h1.64v3.28H128v1.64h4.93v3.28H113.22V54.15h6.56V50.87h1.64V6.56h-1.64V3.28h-4.92V1.64h-1.64Zm36.1,44.3h-1.64V46h1.64Z" style="fill:#fcfbee"/><path d="M183.09,24.62V22.06l12.06-.88V48.45a24.82,24.82,0,0,0,.16,3.11,8.08,8.08,0,0,0,.83,2.47,3.93,3.93,0,0,0,2.2,1.92,11.4,11.4,0,0,0,4,.6,8.63,8.63,0,0,0,7.21-3.65,14.63,14.63,0,0,0,2.75-9.06V29.2c0-2-.36-3.31-1.08-3.81s-2.5-.77-5.33-.77V22.06L218,21.18V50.27c0,2,.35,3.3,1.06,3.82s2.49.78,5.35.78v2.56l-11.82.92V50.94q-3.45,7.38-10.58,7.41a17.35,17.35,0,0,1-6.07-.92,11.34,11.34,0,0,1-3.7-2.06,7.25,7.25,0,0,1-1.9-3.35,16.23,16.23,0,0,1-.75-3.56c-.05-.91-.08-2.24-.08-4V32.16c0-3.72-.26-5.9-.8-6.55S186.29,24.62,183.09,24.62Z" style="fill:#fcfbee"/><path d="M228.28,39.37a19,19,0,0,1,5-13.22,15.7,15.7,0,0,1,12.1-5.49c4.8,0,8.46,1.55,11,4.66a17.56,17.56,0,0,1,3.75,11.36c0,.87-.11,1.39-.32,1.55a3.47,3.47,0,0,1-1.72.25H235.09q0,8.4,2.49,12.33,3.43,5.5,9.25,5.5a10.47,10.47,0,0,0,1.77-.16,19.28,19.28,0,0,0,3-.86,9.34,9.34,0,0,0,3.71-2.59A13.57,13.57,0,0,0,258,47.84c.15-.78.48-1.15,1-1.13.69,0,1,.33,1,1a6.41,6.41,0,0,1-.78,2.34A20.43,20.43,0,0,1,257,53.56a12.3,12.3,0,0,1-4.34,3.36,14,14,0,0,1-6.31,1.43,17.28,17.28,0,0,1-12.64-5.46A18.44,18.44,0,0,1,228.28,39.37Zm6.89-2.69h19.47a23.56,23.56,0,0,0-.3-3.63,31,31,0,0,0-1.16-4.58,9.25,9.25,0,0,0-2.87-4.33,7.45,7.45,0,0,0-5-1.68,7.59,7.59,0,0,0-2.75.56,12.63,12.63,0,0,0-3.14,1.92,10.21,10.21,0,0,0-2.93,4.43A22.56,22.56,0,0,0,235.17,36.68Z" style="fill:#fcfbee"/><path d="M23.79,72.26H20.31v7H16.83V89.67H13.35v10.44H9.87V114h-7V100.11H6.38v-7H9.87V82.71h3.48v-7h3.48v-7H13.35V65.3H23.79Zm-7,38.3H13.35v-3.48h3.48Z"/><path d="M30.06,114h-7v-1.39H21.7v-5.57h1.39v-2.79h1.4v-4.18h1.39V97.33h1.39V93.15h1.39V90.37h1.4V84.79h-1.4V83.4H27.27V82h7V80.62h4.18v4.17H37v2.79H35.63v2.79h-1.4v4.17H32.84v4.18H31.45v2.79H30.06v4.17h-1.4v4.18h4.18v1.39H31.45v1.4H30.06Zm2.78-4.18v-1.39h1.39v-1.39h1.4v-1.4H37v1.4H35.63v1.39h-1.4v1.39Zm2.79-39H37V68.08h1.39V66.69h7v1.39H44v2.79H42.59v2.79h-7Z"/><path d="M60.69,111.25v-2.78h1.39v-1.39h1.4v-2.79h1.39V102.9H63.48v1.39h-1.4v2.79H60.69v1.39H59.3v1.39H57.91v1.39h-1.4v1.4H53.73V114H45.38v-1.39H44v-1.4H42.59v-2.78H41.2v-8.36h1.39V95.94H44V93.15h1.4V90.37h1.39V89h1.39V87.58h1.39V86.19h1.39v-1.4h1.4V83.4h2.78V82h2.79V80.62h9.75V82h2.78V83.4h2.79V82H76V80.62H77.4V83.4H76v4.18H74.62v4.18H73.23v2.78h-1.4v4.18H70.44v2.79H69.05v4.17H67.66v2.79h-1.4v4.18H64.87v2.78H63.48v4.18h-1.4v4.18H60.69v2.78h1.39V128h2.79v2.79H48.16V128h4.18v-1.39h1.39v-1.39h1.39v-2.79h1.39v-4.17h1.4V114H59.3v-2.79Zm-5.57-1.39v-1.39h2.79v-1.39H59.3v-1.4h1.39v-1.39h1.39v-2.78h1.4v-1.4h1.39V97.33h1.39V93.15h1.4V89h1.39V86.19H67.66v-1.4h-1.4V83.4h-7v1.39H57.91v1.4H55.12v1.39H53.73v2.79H52.34v1.39h-1.4v2.78H49.55v4.18H48.16v9.75h1.39v1.39Z"/><path d="M87.15,115.43H85.76V114H81.58v-1.39H80.19v-8.36h1.39v-2.78H83V98.72h1.4V94.54h1.39V91.76h1.39V89h1.39V84.79H87.15V83.4H84.37V82h7V80.62H96.9V82H95.51v4.18h-1.4V89H92.72v2.79H91.33v4.18H89.94v2.78h-1.4v4.18H87.15v4.18H85.76v2.78h1.39v1.39h2.79v-1.39h2.78v-1.39h1.39v-1.39h1.4v-1.4H96.9v-1.39h1.39v-2.78h1.39v-1.4h1.4V98.72h1.39V94.54h1.39V90.37h1.39V87.58h1.4V83.4H108V80.62h7V82h-1.39v2.78h-1.39V89h-1.4v2.79h-1.39v4.18H108v2.78h-1.39v4.18h-1.4v2.78h-1.39v4.18H108v-1.39h1.39v-1.39h1.39v-1.4h1.4v1.4h-1.4v2.78h-1.39v1.39H108v1.4h-2.79V114h-7v-1.39H96.9v-4.18h1.39v-1.39h1.39v-1.4h1.4V102.9h-1.4v1.39H98.29v2.79H96.9v1.39H95.51v1.39h-1.4v1.39H92.72v1.4H89.94V114H87.15Z"/><path d="M124.75,114h-7v-1.39h-1.4v-5.57h1.4v-2.79h1.39v-4.18h1.39V97.33H122V93.15h1.4V90.37h1.39V84.79h-1.39V83.4H122V82h7V80.62h4.17v4.17h-1.39v2.79h-1.39v2.79h-1.39v4.17h-1.4v4.18h-1.39v2.79h-1.39v4.17h-1.39v4.18h4.17v1.39h-1.39v1.4h-1.39Zm2.78-4.18v-1.39h1.4v-1.39h1.39v-1.4h1.39v1.4h-1.39v1.39h-1.39v1.39Zm2.79-39h1.39V68.08h1.39V66.69h7v1.39h-1.4v2.79h-1.39v2.79h-7Z"/><path d="M170.7,68.08h-1.39V66.69h-1.39V65.3h8.35V63.91h2.79v2.78h-1.4v2.79h-1.39v4.18h-1.39v4.17h-1.39v2.79h-1.4v4.17H170.7v2.79h-1.39v4.18h-1.39v2.78h-1.4v4.18h-1.39v2.79h-1.39v4.17h-1.39v4.18h4.17v-1.39h1.4v-1.39h1.39v-1.4h1.39v1.4h-1.39v1.39h-1.39v2.78h-2.79v1.4h-1.39V114h-7v-1.39h-1.4v-2.79h1.4v-2.78h1.39v-1.4h-1.39v1.4h-1.4v1.39H154v1.39H152.6v1.39h-1.39v1.4h-2.79V114h-8.35v-1.39h-1.4v-1.4h-1.39v-2.78h-1.39V98.72h1.39V95.94h1.39V93.15h1.4V90.37h1.39V89h1.39V87.58h1.39V86.19h1.4v-1.4H147V83.4h2.78V82h2.79V80.62H161V82h2.79V83.4h2.78V79.23h1.4V76.44h1.39V72.26h1.39Zm-19.49,41.78v-1.39h1.39v-1.39H154v-1.4h1.39v-1.39h1.4V102.9h1.39v-2.79h1.39V97.33H161V93.15h1.4V90.37h1.39V86.19h-1.39v-1.4H161V83.4h-7v1.39H152.6v1.4h-2.79v1.39h-1.39v2.79H147v1.39h-1.39v2.78h-1.4v4.18h-1.39v9.75h1.39v1.39Zm7-7v1.39h1.39V102.9Z"/><path d="M199.94,107.08h-1.39v1.39h-1.39v1.39h-1.39v1.39h-1.4v1.4H193V114H181.84v-1.39h-2.78v-1.4h-1.39v-2.78h-1.4v-4.18h-1.39v-2.78h1.39v-7h1.4V91.76h1.39V89h1.39V87.58h1.39V86.19h1.39v-1.4h1.4V83.4h2.78V82h2.79V80.62h8.35V82h2.79V83.4h1.39v1.39h1.39V89h-1.39v1.4h-1.39v1.39h-1.4v1.39h-1.39v1.39h-2.78v1.4H190.2v1.39h-9.75v1.39h1.39v4.18h1.39v4.18h1.4v1.39H186v1.39h8.35v-1.39h2.79v-1.39h1.39v-1.4h1.39ZM184.63,95.94v-1.4h7V93.15h2.78V91.76h1.4V90.37h1.39V89h1.39V84.79h-1.39V83.4h-7v1.39h-1.4v1.4h-1.39v1.39H186v2.79h-1.39v2.78h-1.4v2.79Z"/></g></g></svg>