<svg xmlns="http://www.w3.org/2000/svg" viewBox="0 0 383.54 187.83"><title>titreAsset 1</title><g id="Layer_2" data-name="Layer 2"><g id="Layer_1-2" data-name="Layer 1"><path d="M0,81.11V76.48H9.68V71.84H12.1V9.27H9.68V4.64H2.42V2.32H0V0H36.3V2.32H33.88V4.64H26.62V7H24.2V74.16H19.36v2.32H53.24V74.16h4.84V71.84H60.5V69.52h2.42V64.89h2.42v-7h2.42V53.3H72.6v4.64H70.18V76.48H67.76v4.63Z" style="fill:#8e00ff"/><path d="M104.06,81.11H84.7V78.8H82.28V76.48H79.86V60.26h2.42V57.94h4.84V55.62H92V53.3H96.8V51h7.26V48.67h9.68V37.08h-2.42V32.45H108.9V30.13H94.38v2.32H92v2.31H89.54v2.32h4.84V39.4H92V44H82.28V34.76H84.7V30.13h4.84V27.81h4.84V25.49h16.94v2.32h7.26v2.32H121v2.32h2.42v2.31h2.42V76.48h4.84V74.16h4.84v2.32H133.1V78.8h-4.84v2.31h-12.1V78.8h-2.42V74.16h-2.42v2.32H108.9V78.8h-4.84Zm0-4.63V74.16h2.42V71.84h4.84V69.52h2.42V51h-2.42V53.3h-7.26v2.32H96.8v2.32H94.38v2.32H92V71.84h2.42v4.64Z" style="fill:#8e00ff"/><path d="M167,0H193.6V2.32H196V7h2.42v4.64h2.42v7h2.42v4.64h2.42v7h2.42v4.63h2.42v7H213v4.63h2.42V51h2.42v7h2.42v2.32h2.42V55.62h2.42V48.67h2.42V44h2.42V39.4h2.42V32.45h2.42V27.81h2.42V20.86h2.42V13.91H242V9.27h2.42V2.32h2.42V0h26.62V4.64h-9.68V7h-2.42V74.16h2.42v2.32H271V78.8h2.42v2.31h-36.3V76.48h9.68V74.16h2.42V13.91h2.42V11.59h-4.84v7h-2.42v4.64H242v7h-2.42v4.63h-2.42v7h-2.42v4.63h-2.42V51H229.9v7h-2.42v4.63h-2.42v6.95h-2.42v4.64h-2.42v7H217.8v2.32h-2.42V78.8H213V74.16h-2.42v-7h-2.42V62.57H205.7v-7h-2.42V51h-2.42V44h-2.42V39.4H196V32.45H193.6V27.81h-2.42V20.86h-2.42V16.22h-2.42V11.59h-2.42V69.52h2.42v4.64h2.42v2.32H196v4.63H167V76.48h9.68V71.84h2.42V9.27h-2.42V4.64H169.4V2.32H167Zm53.24,62.57H217.8v2.32h2.42Z" style="fill:#8e00ff"/><path d="M270,34.77V31.15l17.78-1.24V68.43a31.43,31.43,0,0,0,.24,4.39,11.23,11.23,0,0,0,1.21,3.48A5.76,5.76,0,0,0,292.53,79a17.25,17.25,0,0,0,6,.85,12.87,12.87,0,0,0,10.63-5.16,20,20,0,0,0,4.06-12.8V41.23q0-4.3-1.6-5.38t-7.86-1.08V31.15l17.79-1.24V71q0,4.31,1.56,5.4t7.89,1.1v3.62l-17.43,1.3V72q-5.08,10.41-15.6,10.46a26.74,26.74,0,0,1-8.95-1.3,16.93,16.93,0,0,1-5.46-2.91,10.21,10.21,0,0,1-2.81-4.73,22.35,22.35,0,0,1-1.09-5c-.08-1.28-.12-3.17-.12-5.66V45.41c0-5.24-.4-8.33-1.19-9.25S274.75,34.77,270,34.77Z" style="fill:#8e00ff"/><path d="M336.68,55.6A26.26,26.26,0,0,1,344,36.92a23.64,23.64,0,0,1,17.84-7.75q10.63,0,16.16,6.59a24.15,24.15,0,0,1,5.53,16q0,1.85-.48,2.19a5.24,5.24,0,0,1-2.54.36H346.73q0,11.85,3.66,17.41,5.08,7.77,13.65,7.77a17.11,17.11,0,0,0,2.62-.23A29.42,29.42,0,0,0,371,78.08a13.81,13.81,0,0,0,5.47-3.65,18.8,18.8,0,0,0,4-6.87c.23-1.09.72-1.62,1.48-1.58,1,0,1.54.45,1.54,1.36a8.8,8.8,0,0,1-1.16,3.3,28.73,28.73,0,0,1-3.34,5,18.12,18.12,0,0,1-6.41,4.74,21.06,21.06,0,0,1-9.3,2,26,26,0,0,1-18.64-7.72A25.46,25.46,0,0,1,336.68,55.6Zm10.16-3.8h28.72a32.52,32.52,0,0,0-.44-5.13,42.1,42.1,0,0,0-1.72-6.46,13,13,0,0,0-4.22-6.12,11.87,11.87,0,0,0-11.38-1.58,19.29,19.29,0,0,0-4.63,2.71,14.5,14.5,0,0,0-4.32,6.26A30.62,30.62,0,0,0,346.84,51.8Z" style="fill:#8e00ff"/><path d="M35.14,105.22H30v9.84H24.87v14.75H19.74v14.75H14.6v19.67H4.33V144.56H9.47v-9.84H14.6V120h5.14v-9.83h5.13V100.3H19.74V95.39h15.4ZM24.87,159.31H19.74v-4.92h5.13Z"/><path d="M44.38,164.23H34.11v-2h-2v-7.87h2v-3.93h2.06v-5.9h2v-3.94h2.05v-5.9h2.06v-3.93h2.05v-7.87H42.33v-2H40.27v-2H50.54v-2H56.7v5.9H54.65v3.94h-2v3.93H50.54v5.9h-2v5.9H46.44v3.93H44.38v5.91H42.33v5.9h6.16v2H46.44v2H44.38Zm4.11-5.9v-2h2v-2H52.6v-2h2v2h-2v2H50.54v2Zm4.11-55.08h2V99.32H56.7v-2H67v2h-2v3.93H62.87v3.94H52.6Z"/><path d="M89.57,160.29v-3.93h2.05v-2h2v-3.93h2.06v-2H93.67v2h-2v3.93H89.57v2H87.51v2H85.46v2H83.4v2H79.3v2H67v-2h-2v-2H62.87v-3.93H60.81v-11.8h2.06v-5.9h2.05v-3.94h2v-3.93H69v-2h2v-2h2v-2h2.06v-2h2v-2h4.11v-2h4.11v-2H99.83v2h4.11v2h4.11v-2h4.11v-2h2V121h-2v5.9H110.1v5.9h-2v3.93h-2v5.9h-2.06v3.93h-2v5.91H99.83v3.93h-2v5.9h-2v3.93H93.67v5.9h-2V178H89.57v3.94h2.05v2h4.11v3.93H71.08V183.9h6.16v-2H79.3v-2h2V176H83.4v-5.9h2.06v-5.9h2.05v-3.94Zm-8.22-2v-2h4.11v-2h2.05v-2h2.06v-2h2.05v-3.94h2v-2h2.06v-3.94h2v-5.9h2v-5.9h2.06v-3.93H99.83v-2h-2v-2H87.51v2H85.46v2H81.35v2h-2v3.93H77.24v2h-2v3.93H73.13v5.9h-2v13.77h2v2Z"/><path d="M128.59,166.19h-2.06v-2h-6.16v-2h-2.05v-11.8h2.05v-3.94h2v-3.93h2.06v-5.9h2v-3.93h2.06v-3.94h2v-5.9h-2v-2h-4.11v-2h10.27v-2H143v2h-2.05v5.9h-2v3.93H136.8v3.94h-2.05v5.9h-2.06v3.93h-2.05v5.9h-2v5.9h-2.06v3.94h2.06v2h4.1v-2h4.11v-2h2.06v-2h2v-2H143v-2H145v-3.94h2v-2h2.05v-2h2.06v-5.9h2v-5.9h2.06v-3.93h2.05V121h2V117h10.27v2h-2v3.93h-2.05v5.9H163.5v3.94h-2.05v5.9h-2.06v3.93h-2v5.9h-2.05v3.94h-2.06v5.9h6.16v-2h2.06v-2h2.05v-2h2.06v2H163.5v3.94h-2.05v2h-2.06v2h-4.1v2H145v-2H143v-5.9H145v-2h2v-2h2.05v-3.94h-2.05v2h-2v3.93H143v2h-2.05v2h-2v2H136.8v2h-4.11v2h-4.1Z"/><path d="M184,164.23H173.77v-2h-2.06v-7.87h2.06v-3.93h2v-5.9h2.06v-3.94h2.05v-5.9h2v-3.93H184v-7.87H182v-2h-2v-2H190.2v-2h6.16v5.9h-2.05v3.94h-2.06v3.93H190.2v5.9h-2v5.9h-2.06v3.93H184v5.91H182v5.9h6.17v2h-2.06v2H184Zm4.11-5.9v-2h2v-2h2.05v-2h2.06v2h-2.06v2H190.2v2Zm4.1-55.08h2.06V99.32h2.05v-2h10.27v2h-2v3.93h-2.06v3.94H192.25Z"/><path d="M251.81,99.32h-2.05v-2h-2v-2H260v-2h4.11v3.93h-2.06v3.94H260v5.9H258v5.9h-2.05V117h-2v5.9h-2.06v3.94h-2.05v5.9h-2v3.93h-2.06v5.9H243.6v3.93h-2.06v5.91h-2v5.9h6.16v-2h2.06v-2h2v-2h2.05v2h-2.05v2h-2v3.93H243.6v2h-2.06v2H231.27v-2h-2.05v-3.93h2.05v-3.94h2.06v-2h-2.06v2h-2.05v2h-2.05v2h-2.06v2h-2.05v2H219v2H206.63v-2h-2.06v-2h-2v-3.93h-2.05V142.59h2.05v-3.93h2v-3.94h2.06v-3.93h2.05v-2h2.06v-2h2v-2h2.05v-2h2.06v-2H221v-2h4.11v-2h12.33v2h4.1v2h4.11v-5.9h2.06v-3.94h2v-5.9h2.05Zm-28.75,59v-2h2.05v-2h2.06v-2h2.05v-2h2.05v-2h2.06v-3.93h2v-3.94h2.06v-5.9h2.05v-3.93h2v-5.9h-2v-2h-2.05v-2H227.17v2h-2.06v2H221v2H219v3.93h-2v2h-2.06v3.93h-2.05v5.9h-2v13.77h2v2Zm10.27-9.84v2h2v-2Z"/><path d="M294.94,154.39h-2.05v2h-2.06v2h-2.05v2h-2v2h-2.06v2H268.24v-2h-4.11v-2h-2.05v-3.93H260v-5.9H258v-3.94H260v-9.83h2.05v-3.93h2.05v-3.94h2.06v-2h2.05v-2h2.06v-2h2.05v-2h4.11v-2h4.1v-2h12.33v2H297v2h2.05v2h2.05v5.9h-2.05v2H297v2h-2.06v2h-2.05v2h-4.11v2h-8.22v2H266.19v2h2.05v5.9h2.06v5.9h2.05v2h2v2h12.33v-2h4.1v-2h2.06v-2h2.05Zm-22.59-15.73v-2h10.27v-2h4.11v-2h2v-2h2.05v-2h2.06v-5.9h-2.06v-2H280.56v2h-2.05v2h-2.05v2H274.4v3.93h-2v3.93H270.3v3.94Z"/></g></g></svg>